<?xml version="1.0" encoding="iso-8859-1"?>
<!-- Generator: Adobe Illustrator 19.0.0, SVG Export Plug-In . SVG Version: 6.00 Build 0)  -->
<svg version="1.1" id="Layer_1" xmlns="http://www.w3.org/2000/svg" xmlns:xlink="http://www.w3.org/1999/xlink" x="0px" y="0px"
	 viewBox="0 0 512 512" style="enable-background:new 0 0 512 512;" xml:space="preserve">
<g>
	<rect x="324.641" y="239.304" style="fill:#C97E67;" width="126.141" height="33.391"/>
	<rect x="322.415" y="172.522" style="fill:#C97E67;" width="161.759" height="33.391"/>
	<rect x="334.28" y="105.739" style="fill:#C97E67;" width="116.502" height="33.391"/>
</g>
<path style="fill:#05232E;" d="M372.87,61.217c0-25.778-15.928-47.827-38.478-56.843L126.516,215.56l9.742,284.141
	C156.071,507.637,177.697,512,200.348,512c95.288,0,172.522-77.245,172.522-172.522V61.217z"/>
<path style="fill:#325763;" d="M148.68,468.658c15.983,6.422,33.425,9.951,51.667,9.951c76.722,0,139.13-62.419,139.13-139.13
	h-33.391c0,58.301-47.427,105.739-105.739,105.739c-13.869,0-27.125-2.682-39.268-7.569L334.392,4.374
	C327.357,1.547,319.688,0,311.652,0c-17.441,0-33.18,7.302-44.321,19.011L75.398,220.516
	c-29.473,30.954-47.571,72.849-47.571,118.962c0,72.626,44.889,134.778,108.433,160.223L148.68,468.658z"/>
<g>
	<rect x="80.295" y="279.541" style="fill:#FAE8AC;" width="33.391" height="33.391"/>
	<rect x="124.817" y="324.063" style="fill:#FAE8AC;" width="33.391" height="33.391"/>
</g>
<rect x="306.087" y="205.913" style="fill:#F6D76F;" width="33.391" height="33.391"/>
<rect x="306.087" y="272.696" style="fill:#325763;" width="33.391" height="33.391"/>
<g>
</g>
<g>
</g>
<g>
</g>
<g>
</g>
<g>
</g>
<g>
</g>
<g>
</g>
<g>
</g>
<g>
</g>
<g>
</g>
<g>
</g>
<g>
</g>
<g>
</g>
<g>
</g>
<g>
</g>
</svg>
